# File created by Blade
# Date/Time:  Thu Sep 25 19:32:06 2014
# Frame Rate: 120.000 fps
#------------------------------------------------------
:FULLY-SPECIFIED
:DEGREES
583
root -10.083932 32.247663 -6.879985 0.269963 8.274707 -0.243023
Spine -11.906331 0.362068 -45.717264
Head -3.662915 17.475381 -40.350212
LeftShoulder -5.770990 24.725986 6.275301
LeftArm 11.111770 36.760952 -52.903240
LeftForeArm 18.082821 -0.000000 7.632843
LeftHand -29.068252 -0.000000 -3.127385
LeftHandThumb1 -26.253704 0.000000 33.147579
RightShoulder -21.305279 25.891827 -55.439809
RightArm 37.354710 40.955725 24.278484
RightForeArm 27.892659 0.000000 34.389855
RightHand 6.197352 -0.000000 2.829112
RightHandThumb1 -24.326973 -0.000000 -32.862282
LeftUpLeg 14.529348 -5.815033 -6.411475
LeftLeg -1.465868 -0.000000 0.000000
LeftFoot -17.370988 6.559323 -13.399149
LeftToeBase 4.996665 -0.000000 -0.000000
RightUpLeg -1.061088 -9.561864 16.018069
RightLeg 13.408265 -0.000000 -0.000000
RightFoot -10.313183 1.564578 -2.177891
RightToeBase -11.776113 -0.000000 0.000000
584
root -10.078629 32.246450 -6.888420 0.306774 8.244720 -0.245272
Spine -11.913605 0.402045 -45.702790
Head -3.638777 17.432515 -40.279310
LeftShoulder -5.765073 24.567034 6.280719
LeftArm 11.028939 36.847018 -52.955398
LeftForeArm 18.112880 -0.000000 7.608845
LeftHand -29.048460 -0.000000 -3.145940
LeftHandThumb1 -26.253704 0.000000 33.147579
RightShoulder -21.312713 25.859700 -55.423107
RightArm 37.336378 40.959068 24.239787
RightForeArm 27.801932 -0.000000 34.351512
RightHand 6.149679 -0.000000 2.811608
RightHandThumb1 -24.326973 -0.000000 -32.862282
LeftUpLeg 14.474495 -5.782288 -6.412531
LeftLeg -1.458177 -0.000000 0.000000
LeftFoot -17.324087 6.580426 -13.281069
LeftToeBase 5.137739 -0.000000 -0.000000
RightUpLeg -1.115709 -9.560235 16.012942
RightLeg 13.433836 -0.000000 -0.000000
RightFoot -10.346445 1.592323 -2.194877
RightToeBase -11.725928 -0.000000 0.000000
585
root -10.072690 32.246410 -6.897785 0.344225 8.230280 -0.224243
Spine -11.905550 0.437194 -45.699630
Head -3.608530 17.409955 -40.225650
LeftShoulder -5.800805 24.714787 6.209152
LeftArm 11.273313 36.782554 -52.755087
LeftForeArm 18.111822 -0.000000 7.616489
LeftHand -29.160267 -0.000000 -3.145793
LeftHandThumb1 -26.253704 0.000000 33.147579
RightShoulder -21.303794 25.837289 -55.449072
RightArm 37.281644 41.022623 24.251855
RightForeArm 27.518285 -0.000000 34.349784
RightHand 5.985588 -0.000000 2.962696
RightHandThumb1 -24.326973 -0.000000 -32.862282
LeftUpLeg 14.416413 -5.749801 -6.437996
LeftLeg -1.450688 -0.000000 0.000000
LeftFoot -17.340609 6.556898 -13.344055
LeftToeBase 4.783536 -0.000000 -0.000000
RightUpLeg -1.172678 -9.564407 15.987373
RightLeg 13.459979 -0.000000 -0.000000
RightFoot -10.381977 1.601108 -2.217565
RightToeBase -11.736219 -0.000000 0.000000
586
root -10.065930 32.246292 -6.907177 0.390361 8.215434 -0.206496
Spine -11.895171 0.477331 -45.679709
Head -3.615047 17.382961 -40.206608
LeftShoulder -5.859483 24.671428 6.126524
LeftArm 11.365722 36.851577 -52.625718
LeftForeArm 18.083857 -0.000000 7.623353
LeftHand -29.275360 0.000000 -3.114663
LeftHandThumb1 -26.253704 0.000000 33.147579
RightShoulder -21.333927 25.801688 -55.490034
RightArm 37.213552 40.982534 24.191765
RightForeArm 27.459714 -0.000000 34.285773
RightHand 6.117792 -0.000000 2.633094
RightHandThumb1 -24.326973 -0.000000 -32.862282
LeftUpLeg 14.354652 -5.725310 -6.460495
LeftLeg -1.443341 -0.000000 0.000000
LeftFoot -17.355757 6.555911 -13.331763
LeftToeBase 4.979270 -0.000000 -0.000000
RightUpLeg -1.241503 -9.572384 15.964634
RightLeg 13.489312 -0.000000 -0.000000
RightFoot -10.408409 1.618461 -2.248563
RightToeBase -11.722921 -0.000000 0.000000
587
root -10.058973 32.245879 -6.917340 0.427039 8.201697 -0.213758
Spine -11.890736 0.519386 -45.655243
Head -3.548569 17.394534 -40.079526
LeftShoulder -5.838359 24.549673 6.151296
LeftArm 11.299419 36.865067 -52.708859
LeftForeArm 18.125384 -0.000000 7.616901
LeftHand -29.285535 -0.000000 -3.010193
LeftHandThumb1 -26.253704 0.000000 33.147579
RightShoulder -21.284931 25.806685 -55.415304
RightArm 37.062092 40.928830 23.964245
RightForeArm 27.555483 0.000000 34.214664
RightHand 6.161720 -0.000000 2.690373
RightHandThumb1 -24.326973 -0.000000 -32.862282
LeftUpLeg 14.304150 -5.714264 -6.459268
LeftLeg -1.452085 -0.000000 0.000000
LeftFoot -17.356367 6.506860 -13.383520
LeftToeBase 4.978336 -0.000000 -0.000000
RightUpLeg -1.303122 -9.571004 15.967078
RightLeg 13.510717 -0.000000 -0.000000
RightFoot -10.429166 1.638688 -2.233767
RightToeBase -11.732054 -0.000000 0.000000
588
root -10.052448 32.246423 -6.928074 0.467290 8.195430 -0.208912
Spine -11.874597 0.570804 -45.626332
Head -3.481516 17.392122 -39.975796
LeftShoulder -5.851558 24.551027 6.119117
LeftArm 11.389823 36.827485 -52.642803
LeftForeArm 18.152737 -0.000000 7.641196
LeftHand -29.225933 -0.000000 -2.986267
LeftHandThumb1 -26.253704 0.000000 33.147579
RightShoulder -21.263585 25.800720 -55.417883
RightArm 36.911466 40.915888 23.837141
RightForeArm 27.525777 0.000000 34.172938
RightHand 6.150173 0.000000 2.911973
RightHandThumb1 -24.326973 -0.000000 -32.862282
LeftUpLeg 14.243057 -5.704365 -6.465899
LeftLeg -1.447868 -0.000000 0.000000
LeftFoot -17.345829 6.475564 -13.409256
LeftToeBase 5.062836 -0.000000 -0.000000
RightUpLeg -1.370943 -9.536703 15.964608
RightLeg 13.537665 -0.000000 -0.000000
RightFoot -10.443317 1.570023 -2.276135
RightToeBase -11.733449 -0.000000 0.000000
589
root -10.045971 32.247954 -6.937756 0.491949 8.193329 -0.196896
Spine -11.823715 0.632192 -45.597951
Head -3.465798 17.395904 -39.910810
LeftShoulder -5.905517 24.490468 6.070136
LeftArm 11.470820 36.831862 -52.561121
LeftForeArm 18.133219 -0.000000 7.665140
LeftHand -29.187081 -0.000000 -3.012484
LeftHandThumb1 -26.253704 0.000000 33.147579
RightShoulder -21.270809 25.774633 -55.452110
RightArm 36.780403 40.943214 23.778087
RightForeArm 27.470805 -0.000000 34.134415
RightHand 6.072349 -0.000000 3.120187
RightHandThumb1 -24.326973 -0.000000 -32.862282
LeftUpLeg 14.200730 -5.699323 -6.477469
LeftLeg -1.438791 -0.000000 0.000000
LeftFoot -17.257314 6.436915 -13.267252
LeftToeBase 4.714741 -0.000000 -0.000000
RightUpLeg -1.417035 -9.522780 15.950652
RightLeg 13.551617 -0.000000 -0.000000
RightFoot -10.433831 1.548238 -2.277635
RightToeBase -11.823790 -0.000000 0.000000
